<svg xmlns="http://www.w3.org/2000/svg" xmlns:xlink="http://www.w3.org/1999/xlink" viewBox="771 -764 260 200">
  <defs>
    <style>
      .cls-1 {
        clip-path: url(#clip-logo);
      }

      .cls-2 {
        fill: #9a7e17;
      }

      .cls-3 {
        fill: #144c3d;
      }

      .cls-4 {
        fill: none;
        stroke: #144c3d;
        stroke-width: 0.184px;
      }
    </style>
    <clipPath id="clip-logo">
      <rect x="771" y="-764" width="260" height="200"/>
    </clipPath>
  </defs>
  <g id="logo" class="cls-1">
    <g id="Group_66" data-name="Group 66" transform="translate(723.6 -757.1)">
      <path id="Path_121" data-name="Path 121" class="cls-2" d="M84.968,87.5v.993a8.941,8.941,0,0,0-7.116,2.979l-13.24,13.571,18.7,18.37c3.144,3.144,5.627,3.806,7.944,3.806v1.324h-18.7V127.22c2.482,0,3.972-.662,3.972-1.82,0-.827-1.655-3.31-4.8-6.454L60.971,108.353,57.992,111v10.261c0,4.965.827,5.792,4.965,5.792v1.324H47.4v-1.324c4.3,0,4.965-.827,4.965-5.792V94.616c0-4.965-.827-5.792-4.965-5.792V87.5H63.122v1.324c-4.3,0-4.965.827-4.965,5.792V109.18l9.93-9.433c3.806-3.641,6.123-6.454,6.123-8.275,0-1.49-1.82-2.317-4.137-2.152V88" transform="translate(0 57.247)"/>
      <path id="Path_122" data-name="Path 122" class="cls-2" d="M79.282,118.535c0,3.475.5,3.972,3.475,3.972v.827H72v-.827c2.979,0,3.475-.662,3.475-3.972V100c0-3.475-.5-3.972-3.475-3.972V95.2H83.419v.827c-3.475,0-3.972.662-3.972,3.972" transform="translate(16.113 62.29)"/>
      <path id="Path_123" data-name="Path 123" class="cls-2" d="M107.8,94.5v7.613h-.662c-1.158-4.137-2.979-4.8-7.778-4.8-3.807,0-4.137.165-4.137,3.972,0,4.3-.331,15.226-.331,17.708,0,3.144.827,3.806,4.634,3.972v.827H86.613v-.827c4.137,0,4.634-.662,4.634-3.972,0-2.482.331-13.571.331-17.708,0-3.641-.165-3.807-3.641-3.807-4.634,0-6.785,1.655-8.109,4.634H79L80.986,94.5h.993c.827.993,1.986,1.49,3.972,1.49h16.881c2.813,0,3.144-.331,4.468-1.49" transform="translate(20.698 61.832)"/>
      <path id="Path_124" data-name="Path 124" class="cls-2" d="M120.725,103.9c-.993-3.145-3.641-8.109-10.1-8.109-5.13,0-10.1,4.468-10.1,14.067,0,7.944,4.634,13.405,11.254,13.405,4.634,0,8.109-3.145,9.764-7.447h.827l-.662,4.468c-1.324,1.655-5.461,3.807-10.757,3.807-9.764,0-15.06-6.785-15.06-13.9,0-8.606,5.792-15.391,15.06-15.391,3.145,0,8.44,1.324,10.757,3.475l-.165,5.627" transform="translate(31.767 62.028)"/>
      <path id="Path_125" data-name="Path 125" class="cls-2" d="M137.052,107.843V99.9c0-3.475-.5-3.972-4.138-3.972V95.1H144.5v.827c-2.979,0-3.476.662-3.476,3.972v18.536c0,3.475.5,3.972,3.476,3.972v.827h-11.75v-.827c3.806,0,4.3-.662,4.3-3.972v-9.1H119.013v9.1c0,3.475.5,3.972,4.137,3.972v.827H111.4v-.827c3.145,0,3.807-.662,3.807-3.972v-18.37c0-3.475-.5-3.972-3.475-3.972v-.827H123.15v.827c-3.475,0-3.972.662-3.972,3.972v7.944" transform="translate(41.92 62.225)"/>
      <path id="Path_126" data-name="Path 126" class="cls-2" d="M130.8,122.507c3.641,0,4.137-.662,4.137-3.972.165-5.792.165-12.081.165-18.536,0-3.475-.5-3.972-3.972-3.972V95.2h21.68l.993,5.13h-.662c-1.986-2.482-3.31-3.972-7.613-3.972h-3.806c-2.317,0-2.648.165-2.648,1.82v9.764h4.634c3.806,0,4.137-.662,4.965-3.972h.993v9.764h-.993c-.5-3.475-1.324-4.3-4.469-4.3h-4.965v11.254c0,1.49.662,1.82,2.814,1.82h5.958c4.3,0,5.13-.827,7.944-5.627h.828a56.654,56.654,0,0,0-1.49,6.62H130.966" transform="translate(54.627 62.29)"/>
      <path id="Path_127" data-name="Path 127" class="cls-2" d="M146.927,122.573c2.814-.331,3.807-.827,3.807-5.792V100.065c0-3.31-1.49-3.807-4.634-4.137V95.1h7.116c3.475,4.3,18.2,19.86,20.356,22.342.165-5.3.165-13.074.165-17.212,0-2.648-.827-3.641-4.137-4.137v-.827h9.6v.827c-3.31.331-4.137,1.49-4.137,4.137,0,1.655-.331,15.722-.662,23.5h-.828c-2.317-3.641-14.564-15.391-21.515-24.163h-.165v17.543c0,4.965.662,5.461,3.972,5.792v.827h-9.1" transform="translate(64.648 62.225)"/>
      <path id="Path_128" data-name="Path 128" class="cls-2" d="M165.7,122.507c3.641,0,4.137-.662,4.3-3.972.166-5.792.166-12.081.166-18.536,0-3.475-.5-3.972-3.972-3.972V95.2h21.515l.993,5.13h-.662c-1.986-2.482-3.31-3.972-7.613-3.972h-3.806c-2.317,0-2.648.165-2.648,1.82v9.764h4.634c3.806,0,4.3-.662,4.965-3.972h.993v9.764h-.993c-.5-3.475-1.324-4.3-4.469-4.3h-4.965v11.254c0,1.49.662,1.82,2.813,1.82h5.958c4.3,0,5.13-.827,7.944-5.627h.828a56.654,56.654,0,0,0-1.49,6.62H165.866" transform="translate(77.486 62.29)"/>
      <path id="Path_129" data-name="Path 129" class="cls-2" d="M192.823,107.36c9.764,0,13.9-1.986,13.9-9.268,0-5.958-4.8-8.937-9.764-8.937-3.641,0-4.3.827-4.3,3.31M181.9,127.22c4.634,0,5.462-.827,5.462-5.792,0-9.6.331-17.708.165-26.811,0-4.965-.827-5.792-4.8-5.792V87.5h12.578c10.426,0,17.377,3.145,17.377,10.592,0,7.282-7.613,9.268-9.6,9.764l10.592,15.722c1.655,2.482,3.31,3.475,5.627,3.475v1.324h-7.116c-.662,0-1.159-.165-2.648-2.317L198.45,108.849h-5.627v12.578c0,4.965.827,5.792,5.627,5.792v1.324H181.9Z" transform="translate(88.097 57.247)"/>
      <path id="Path_130" data-name="Path 130" class="cls-3" d="M161.446,101.717c8.606,0,8.771-6.785,8.771-6.785a13.686,13.686,0,0,0-.331-4.137,9.758,9.758,0,0,0-.662-1.324c-.165,1.489-.5,2.979-.5,3.641a9.845,9.845,0,0,1-1.489,5.3,6.069,6.069,0,0,1-5.462,2.317c-2.152-.165-4.634-2.482-3.972-4.8a5.174,5.174,0,0,0,4.965,3.31c5.3,0,5.13-6.785,2.482-9.6-2.317-2.482-9.6-2.482-9.93,1.986-.662-6.289,10.923-7.447,12.247-1.49.662-.5.5-1.655.331-2.482-1.158-1.324-3.144-2.482-7.116-2.482-7.447,0-6.951,6.785-6.951,6.785l-.165,1.159c.331-.331-.827,8.606,7.779,8.606m-35.086,2.151a2.274,2.274,0,0,1-.662-1.986l.993-5.792a2.462,2.462,0,0,0,0-1.159,5.633,5.633,0,0,1-.331-2.317,6.43,6.43,0,0,1,1.324-3.641c1.324-1.82,1.49-1.324,1.49-1.324a11.176,11.176,0,0,1,.331,2.317l.331,4.634a9.729,9.729,0,0,0,5.3.331c.662-.165.993-.5.827-.662a5,5,0,0,1-.5-1.49l-.827-5.958c8.44-11.585,17.874-11.75,17.874-11.75a1.131,1.131,0,0,0,1.158-1.159V48.426a2.522,2.522,0,0,1,.993,1.655l.993,24.659c4.468,0,14.564,4.3,14.564,4.3-8.606-2.813-13.074-1.82-13.074-1.82-.662.165-1.158.5-1.158.827s-.331.5-.662.662a.757.757,0,0,1-.662-.827c-4.965.662-4.137,2.317-4.137,2.317.331.662.331,1.159.165,1.324a2.8,2.8,0,0,1-1.49.331l-3.806.165a2.522,2.522,0,0,0-1.82.993c-.331.5-.165.827.5.827l8.109-.331c7.282-6.123,16.219-.827,16.219-.827.5.331.5.331,0,.165,0,0-6.785-3.144-12.909-.5-5.958,2.648-6.62,7.778-6.62,7.778,0,.662-.331,1.158-.662,1.158h-1.655c-.165.662.331.993.993.993h.5a2.02,2.02,0,0,0,1.489-1.324,11.473,11.473,0,0,1,11.419-8.44c9.268,0,10.923,5.461,12.081,7.613,1.158,1.986,2.152,2.813,3.31,2.979a13.833,13.833,0,0,1,2.152.5,21.1,21.1,0,0,1,1.986,1.159,8.055,8.055,0,0,0,2.813.993,31.37,31.37,0,0,0,5.13.331c.993,0,0,1.159,0,1.159a4.191,4.191,0,0,0-1.986.331l.166.827a.612.612,0,0,1,.331.5s-.331.165-.662,1.324l-.166,1.159c.166.331-.331.662-.993.662H182.8a2.089,2.089,0,0,1-1.986-.165l-2.648-1.82a15.309,15.309,0,0,0-1.655-.827c-.331,0-.827-.5-.993-.993a1.245,1.245,0,0,0-1.158-.827c-.5,0-.827-.5-.993-1.158l-.166-.993c-.166-.662-.5-1.159-.827-1.159s-.5.5-.5,1.159c0,0,.662,8.275-10.1,8.275s-8.937-12.578-8.937-12.578c-1.158.165-1.324.662-1.324.662a11.176,11.176,0,0,0-.331,2.317v.331a2.268,2.268,0,0,0-1.82.827,2.889,2.889,0,0,0-.662,1.986l.5,5.958c0,.662-.5,1.159-.993.993a1.679,1.679,0,0,0-1.324.331,3.251,3.251,0,0,1-1.49.662.931.931,0,0,1-1.158-.993v-1.82c0-.662-.5-.993-.993-.662l-6.62,3.475a.833.833,0,0,1-1.324-.5l-.827-3.145a1.184,1.184,0,0,0-1.49-.827l-.5.165a1.4,1.4,0,0,0-1.158,1.324l.165,8.937a4.391,4.391,0,0,0-1.82.331c-.662.331-.993,0-.993-.662l.165-3.806a3.053,3.053,0,0,0-.827-1.986Zm47,47.829-.331-10.757a10.926,10.926,0,0,0-.166-2.317s-.331-7.613-3.31-7.613c-2.979-.165-2.979,2.317-2.979,2.317v2.317s0,9.433-.166,16.053A48.654,48.654,0,0,0,173.362,151.7Zm-15.226.166v-3.145s.662-18.2-3.144-18.2c-3.31,0-3.641,13.405-3.807,21.018A47.737,47.737,0,0,0,158.136,151.863Zm-20.356-.662c2.152.165,4.3.331,6.62.331-.662-10.592-1.489-15.557-2.151-17.046-.827-1.986-1.49.331-1.49.331h-.993s-1.158-1.158-1.324-.993c-.331.165-.5.827-.5,1.49Zm108.071-15.557c0,5.462-13.9,10.426-35.086,13.405,17.377-2.979,28.466-7.447,28.466-12.247,0-6.62-20.356-12.412-49.65-14.895-.166.165-.331.5-.5.662a6.6,6.6,0,0,0-.662,3.475c0,.662.166,1.655.166,2.317,0,0,0,3.144-.166,4.3a15.892,15.892,0,0,0,.166,4.3,2.274,2.274,0,0,1-.662,1.986c-.5.331-.827,1.324-1.158,1.82l-1.821,5.627c-.166.662-.331.662-.331,0l-.5-8.275c0-.662-.166-1.655-.166-2.317,0,0-.166-3.31-1.655-2.979-1.324.165-1.489,2.648-1.489,2.648,0,.662-.331.993-.662.827s-.827.165-1.158.662l-.331.331a4.581,4.581,0,0,0-.5,2.152s0,5.958.166,12.081c11.916-.5,22.839-1.324,32.438-2.648-14.564,2.482-33.6,3.972-54.449,3.972-45.843,0-82.915-7.282-82.915-16.384,0-5.462,13.736-10.426,34.92-13.24-17.543,2.979-28.466,7.447-28.466,12.412,0,6.454,19.2,12.081,47,14.729.165-7.116.5-14.4.5-14.4,0-.662-1.49-2.317-1.49-2.813a8.728,8.728,0,0,1,.5-1.986l1.158-4.137a2.709,2.709,0,0,0-.331-1.986l-2.152-2.648a3.61,3.61,0,0,1-.662-.827c-5.627.5-11.088.993-15.888,1.82,4.8-.827,9.93-1.49,15.557-2.152l-.5-.5-.827-.662a2.741,2.741,0,0,1-.827-1.986s.165-8.275,31.279-8.275c35.086,0,37.4,5.13,38.561,5.958a1.955,1.955,0,0,1,.5,2.317c-.331.662-.662,1.158-.993,1.158-.166,0-.5.331-.662.827C222.681,122.4,245.851,128.528,245.851,135.644ZM157.143,3.41a3.053,3.053,0,0,0-.827,1.986l.165,16.219a2.522,2.522,0,0,1-.993,1.82,12.785,12.785,0,0,0-3.145,3.144c-.993,1.655-1.49,1.82-1.49,1.82a2.238,2.238,0,0,0-1.49,1.489l-.827,2.482c-.331.993.662,3.31-2.317,6.951a11.812,11.812,0,0,1-7.447,4.3,6.661,6.661,0,0,1-4.137-2.979s3.145-.662,4.634-6.951c1.655-6.289,7.116-12.412,7.116-12.412a14.407,14.407,0,0,0,1.49-1.82s6.785-9.6,7.447-15.06a3.9,3.9,0,0,1-1.49-2.482A1.694,1.694,0,0,1,155.488.1c.5,0,2.151.5,2.151,1.655A3.1,3.1,0,0,1,157.143,3.41Z" transform="translate(17.03 0)"/>
      <path id="Path_131" data-name="Path 131" class="cls-4" d="M161.446,101.717c8.606,0,8.771-6.785,8.771-6.785a13.686,13.686,0,0,0-.331-4.137,9.758,9.758,0,0,0-.662-1.324c-.165,1.489-.5,2.979-.5,3.641a9.845,9.845,0,0,1-1.489,5.3,6.069,6.069,0,0,1-5.462,2.317c-2.152-.165-4.634-2.482-3.972-4.8a5.174,5.174,0,0,0,4.965,3.31c5.3,0,5.13-6.785,2.482-9.6-2.317-2.482-9.6-2.482-9.93,1.986-.662-6.289,10.923-7.447,12.247-1.49.662-.5.5-1.655.331-2.482-1.158-1.324-3.144-2.482-7.116-2.482-7.447,0-6.951,6.785-6.951,6.785l-.165,1.159C154,92.78,152.84,101.717,161.446,101.717Zm-35.086,2.151a2.274,2.274,0,0,1-.662-1.986l.993-5.792a2.462,2.462,0,0,0,0-1.159,5.633,5.633,0,0,1-.331-2.317,6.43,6.43,0,0,1,1.324-3.641c1.324-1.82,1.49-1.324,1.49-1.324a11.176,11.176,0,0,1,.331,2.317l.331,4.634a9.729,9.729,0,0,0,5.3.331c.662-.165.993-.5.827-.662a5,5,0,0,1-.5-1.49l-.827-5.958c8.44-11.585,17.874-11.75,17.874-11.75a1.131,1.131,0,0,0,1.158-1.159V48.426a2.522,2.522,0,0,1,.993,1.655l.993,24.659c4.468,0,14.564,4.3,14.564,4.3-8.606-2.813-13.074-1.82-13.074-1.82-.662.165-1.158.5-1.158.827s-.331.5-.662.662a.757.757,0,0,1-.662-.827c-4.965.662-4.137,2.317-4.137,2.317.331.662.331,1.159.165,1.324a2.8,2.8,0,0,1-1.49.331l-3.806.165a2.522,2.522,0,0,0-1.82.993c-.331.5-.165.827.5.827l8.109-.331c7.282-6.123,16.219-.827,16.219-.827.5.331.5.331,0,.165,0,0-6.785-3.144-12.909-.5-5.958,2.648-6.62,7.778-6.62,7.778,0,.662-.331,1.158-.662,1.158h-1.655c-.165.662.331.993.993.993h.5a2.02,2.02,0,0,0,1.489-1.324,11.473,11.473,0,0,1,11.419-8.44c9.268,0,10.923,5.461,12.081,7.613,1.158,1.986,2.152,2.813,3.31,2.979a13.833,13.833,0,0,1,2.152.5,21.1,21.1,0,0,1,1.986,1.159,8.055,8.055,0,0,0,2.813.993,31.37,31.37,0,0,0,5.13.331c.993,0,0,1.159,0,1.159a4.191,4.191,0,0,0-1.986.331l.166.827a.612.612,0,0,1,.331.5s-.331.165-.662,1.324l-.166,1.159c.166.331-.331.662-.993.662H182.8a2.089,2.089,0,0,1-1.986-.165l-2.648-1.82a15.309,15.309,0,0,0-1.655-.827c-.331,0-.827-.5-.993-.993a1.245,1.245,0,0,0-1.158-.827c-.5,0-.827-.5-.993-1.158l-.166-.993c-.166-.662-.5-1.159-.827-1.159s-.5.5-.5,1.159c0,0,.662,8.275-10.1,8.275s-8.937-12.578-8.937-12.578c-1.158.165-1.324.662-1.324.662a11.176,11.176,0,0,0-.331,2.317v.331a2.268,2.268,0,0,0-1.82.827,2.889,2.889,0,0,0-.662,1.986l.5,5.958c0,.662-.5,1.159-.993.993a1.679,1.679,0,0,0-1.324.331,3.251,3.251,0,0,1-1.49.662.931.931,0,0,1-1.158-.993v-1.82c0-.662-.5-.993-.993-.662l-6.62,3.475a.833.833,0,0,1-1.324-.5l-.827-3.145a1.184,1.184,0,0,0-1.49-.827l-.5.165a1.4,1.4,0,0,0-1.158,1.324l.165,8.937a4.391,4.391,0,0,0-1.82.331c-.662.331-.993,0-.993-.662l.165-3.806a3.053,3.053,0,0,0-.827-1.986Zm47,47.829-.331-10.757a10.926,10.926,0,0,0-.166-2.317s-.331-7.613-3.31-7.613c-2.979-.165-2.979,2.317-2.979,2.317v2.317s0,9.433-.166,16.053A48.654,48.654,0,0,0,173.362,151.7Zm-15.226.166v-3.145s.662-18.2-3.144-18.2c-3.31,0-3.641,13.405-3.807,21.018A47.737,47.737,0,0,0,158.136,151.863Zm-20.356-.662c2.152.165,4.3.331,6.62.331-.662-10.592-1.489-15.557-2.151-17.046-.827-1.986-1.49.331-1.49.331h-.993s-1.158-1.158-1.324-.993c-.331.165-.5.827-.5,1.49Zm108.071-15.557c0,5.462-13.9,10.426-35.086,13.405,17.377-2.979,28.466-7.447,28.466-12.247,0-6.62-20.356-12.412-49.65-14.895-.166.165-.331.5-.5.662a6.6,6.6,0,0,0-.662,3.475c0,.662.166,1.655.166,2.317,0,0,0,3.144-.166,4.3a15.892,15.892,0,0,0,.166,4.3,2.274,2.274,0,0,1-.662,1.986c-.5.331-.827,1.324-1.158,1.82l-1.821,5.627c-.166.662-.331.662-.331,0l-.5-8.275c0-.662-.166-1.655-.166-2.317,0,0-.166-3.31-1.655-2.979-1.324.165-1.489,2.648-1.489,2.648,0,.662-.331.993-.662.827s-.827.165-1.158.662l-.331.331a4.581,4.581,0,0,0-.5,2.152s0,5.958.166,12.081c11.916-.5,22.839-1.324,32.438-2.648-14.564,2.482-33.6,3.972-54.449,3.972-45.843,0-82.915-7.282-82.915-16.384,0-5.462,13.736-10.426,34.92-13.24-17.543,2.979-28.466,7.447-28.466,12.412,0,6.454,19.2,12.081,47,14.729.165-7.116.5-14.4.5-14.4,0-.662-1.49-2.317-1.49-2.813a8.728,8.728,0,0,1,.5-1.986l1.158-4.137a2.709,2.709,0,0,0-.331-1.986l-2.152-2.648a3.61,3.61,0,0,1-.662-.827c-5.627.5-11.088.993-15.888,1.82,4.8-.827,9.93-1.49,15.557-2.152l-.5-.5-.827-.662a2.741,2.741,0,0,1-.827-1.986s.165-8.275,31.279-8.275c35.086,0,37.4,5.13,38.561,5.958a1.955,1.955,0,0,1,.5,2.317c-.331.662-.662,1.158-.993,1.158-.166,0-.5.331-.662.827C222.681,122.4,245.851,128.528,245.851,135.644ZM157.143,3.41a3.053,3.053,0,0,0-.827,1.986l.165,16.219a2.522,2.522,0,0,1-.993,1.82,12.785,12.785,0,0,0-3.145,3.144c-.993,1.655-1.49,1.82-1.49,1.82a2.238,2.238,0,0,0-1.49,1.489l-.827,2.482c-.331.993.662,3.31-2.317,6.951a11.812,11.812,0,0,1-7.447,4.3,6.661,6.661,0,0,1-4.137-2.979s3.145-.662,4.634-6.951c1.655-6.289,7.116-12.412,7.116-12.412a14.407,14.407,0,0,0,1.49-1.82s6.785-9.6,7.447-15.06a3.9,3.9,0,0,1-1.49-2.482A1.694,1.694,0,0,1,155.488.1c.5,0,2.151.5,2.151,1.655A3.1,3.1,0,0,1,157.143,3.41Z" transform="translate(17.03 0)"/>
    </g>
  </g>
</svg>
