<svg xmlns="http://www.w3.org/2000/svg" style="display: none;">
  <!-- Social media icons -->
  <symbol id="icon-linkedin" viewBox="0 0 24 24">
    <path d="M20.447 20.452h-3.554v-5.569c0-1.328-.027-3.037-1.852-3.037-1.853 0-2.136 1.445-2.136 2.939v5.667H9.351V9h3.414v1.561h.046c.477-.9 1.637-1.85 3.37-1.85 3.601 0 4.267 2.37 4.267 5.455v6.286zM5.337 7.433c-1.144 0-2.063-.926-2.063-2.065 0-1.138.92-2.063 2.063-2.063 1.14 0 2.064.925 2.064 2.063 0 1.139-.925 2.065-2.064 2.065zm1.782 13.019H3.555V9h3.564v11.452zM22.225 0H1.771C.792 0 0 .774 0 1.729v20.542C0 23.227.792 24 1.771 24h20.451C23.2 24 24 23.227 24 22.271V1.729C24 .774 23.2 0 22.222 0h.003z"/>
  </symbol>

  <symbol id="icon-instagram" viewBox="0 0 24 24">
    <path d="M12 0C8.74 0 8.333.015 7.053.072 5.775.132 4.905.333 4.14.63c-.789.306-1.459.717-2.126 1.384S.935 3.35.63 4.14C.333 4.905.131 5.775.072 7.053.012 8.333 0 8.74 0 12s.015 3.667.072 4.947c.06 1.277.261 2.148.558 2.913.306.788.717 1.459 1.384 2.126.667.666 1.336 1.079 2.126 1.384.766.296 1.636.499 2.913.558C8.333 23.988 8.74 24 12 24s3.667-.015 4.947-.072c1.277-.06 2.148-.262 2.913-.558.788-.306 1.459-.718 2.126-1.384.666-.667 1.079-1.335 1.384-2.126.296-.765.499-1.636.558-2.913.06-1.28.072-1.687.072-4.947s-.015-3.667-.072-4.947c-.06-1.277-.262-2.149-.558-2.913-.306-.789-.718-1.459-1.384-2.126C21.319 1.347 20.651.935 19.86.63c-.765-.297-1.636-.499-2.913-.558C15.667.012 15.26 0 12 0zm0 2.16c3.203 0 3.585.016 4.85.071 1.17.055 1.805.249 2.227.415.562.217.96.477 1.382.896.419.42.679.819.896 1.381.164.422.36 1.057.413 2.227.057 1.266.07 1.646.07 4.85s-.015 3.585-.074 4.85c-.061 1.17-.256 1.805-.421 2.227-.224.562-.479.96-.899 1.382-.419.419-.824.679-1.38.896-.42.164-1.065.36-2.235.413-1.274.057-1.649.07-4.859.07-3.211 0-3.586-.015-4.859-.074-1.171-.061-1.816-.256-2.236-.421-.569-.224-.96-.479-1.379-.899-.421-.419-.69-.824-.9-1.38-.165-.42-.359-1.065-.42-2.235-.045-1.26-.061-1.649-.061-4.844 0-3.196.016-3.586.061-4.861.061-1.17.255-1.814.42-2.234.21-.57.479-.96.9-1.381.419-.419.81-.689 1.379-.898.42-.166 1.051-.361 2.221-.421 1.275-.045 1.65-.06 4.859-.06l.045.03zm0 3.678c-3.405 0-6.162 2.76-6.162 6.162 0 3.405 2.76 6.162 6.162 6.162 3.405 0 6.162-2.76 6.162-6.162 0-3.405-2.76-6.162-6.162-6.162zM12 16c-2.21 0-4-1.79-4-4s1.79-4 4-4 4 1.79 4 4-1.79 4-4 4zm7.846-10.405c0 .795-.646 1.44-1.44 1.44-.795 0-1.44-.646-1.44-1.44 0-.794.646-1.439 1.44-1.439.793-.001 1.44.645 1.44 1.439z"/>
  </symbol>

  <symbol id="icon-x" viewBox="0 0 24 24">
    <path d="M18.901 1.153h3.68l-8.04 9.19L24 22.846h-7.406l-5.8-7.584-6.638 7.584H.474l8.6-9.83L0 1.154h7.594l5.243 6.932ZM17.61 20.644h2.039L6.486 3.24H4.298Z"/>
  </symbol>

  <symbol id="icon-facebook" viewBox="0 0 24 24">
    <path d="M24 12.073c0-6.627-5.373-12-12-12s-12 5.373-12 12c0 5.99 4.388 10.954 10.125 11.854v-8.385H7.078v-3.47h3.047V9.43c0-3.007 1.792-4.669 4.533-4.669 1.312 0 2.686.235 2.686.235v2.953H15.83c-1.491 0-1.956.925-1.956 1.874v2.25h3.328l-.532 3.47h-2.796v8.385C19.612 23.027 24 18.062 24 12.073z"/>
  </symbol>

  <symbol id="icon-medium" viewBox="0 0 24 24">
    <path d="M13.54 12a6.8 6.8 0 01-6.77 6.82A6.8 6.8 0 010 12a6.8 6.8 0 016.77-6.82A6.8 6.8 0 0113.54 12zM20.96 12c0 3.54-1.51 6.42-3.38 6.42-1.87 0-3.39-2.88-3.39-6.42s1.52-6.42 3.39-6.42 3.38 2.88 3.38 6.42M24 12c0 3.17-.53 5.75-1.19 5.75-.66 0-1.19-2.58-1.19-5.75s.53-5.75 1.19-5.75C23.47 6.25 24 8.83 24 12z"/>
  </symbol>

  <symbol id="icon-envelope" viewBox="0 0 24 24">
    <path d="M0 3v18h24V3H0zm21.518 2L12 12.713 2.482 5h19.036zM2 19V7.183l10 8.104 10-8.104V19H2z"/>
  </symbol>

  <symbol id="icon-slack" viewBox="0 0 24 24">
    <path d="M5.042 15.165a2.528 2.528 0 01-2.52 2.523A2.528 2.528 0 010 15.165a2.527 2.527 0 012.522-2.52h2.52v2.52zM6.313 15.165a2.527 2.527 0 012.521-2.52 2.527 2.527 0 012.521 2.52v6.313A2.528 2.528 0 018.834 24a2.528 2.528 0 01-2.521-2.522v-6.313zM8.834 5.042a2.528 2.528 0 01-2.521-2.52A2.528 2.528 0 018.834 0a2.528 2.528 0 012.521 2.522v2.52H8.834zM8.834 6.313a2.528 2.528 0 012.521 2.521 2.528 2.528 0 01-2.521 2.521H2.522A2.528 2.528 0 010 8.834a2.528 2.528 0 012.522-2.521h6.312zM18.956 8.834a2.528 2.528 0 012.522-2.521A2.528 2.528 0 0124 8.834a2.528 2.528 0 01-2.522 2.521h-2.522V8.834zM17.688 8.834a2.528 2.528 0 01-2.523 2.521 2.527 2.527 0 01-2.52-2.521V2.522A2.527 2.527 0 0115.165 0a2.528 2.528 0 012.523 2.522v6.312zM15.165 18.956a2.528 2.528 0 012.523 2.522A2.528 2.528 0 0115.165 24a2.527 2.527 0 01-2.52-2.522v-2.522h2.52zM15.165 17.688a2.527 2.527 0 01-2.52-2.523 2.526 2.526 0 012.52-2.52h6.313A2.527 2.527 0 0124 15.165a2.528 2.528 0 01-2.522 2.523h-6.313z"/>
  </symbol>

  <!-- Action icons -->
  <symbol id="icon-heart" viewBox="0 0 24 24">
    <path d="M12 21.35l-1.45-1.32C5.4 15.36 2 12.28 2 8.5 2 5.42 4.42 3 7.5 3c1.74 0 3.41.81 4.5 2.09C13.09 3.81 14.76 3 16.5 3 19.58 3 22 5.42 22 8.5c0 3.78-3.4 6.86-8.55 11.54L12 21.35z"/>
  </symbol>

  <symbol id="icon-handshake" viewBox="0 0 24 24">
    <path d="M23.5 10.8L20.47 8l-3.67 3.45 1.75 1.72z M19.2 18.2l-2.5-2.5-4.15 3.65c-0.34 0.3-0.78 0.45-1.25 0.45-0.41 0-0.82-0.14-1.16-0.41l-6.42-5.2-2.12 2.21 8.3 6.7c0.64 0.52 1.47 0.8 2.3 0.8 0.84 0 1.66-0.28 2.3-0.8l4.7-4.2z M4.8 10.6l2.5 2.5 4.15-3.65c0.7-0.6 1.7-0.6 2.41 0l4.65 3.76 2.12-2.2-8.3-6.71C11.69 3.78 10.86 3.5 10.03 3.5c-0.84 0-1.66 0.28-2.3 0.8l-4.7 4.2L0 11z"/>
  </symbol>

  <symbol id="icon-comment-dots" viewBox="0 0 24 24">
    <path d="M12 2C6.48 2 2 6.48 2 12c0 1.54.36 3 .97 4.29L2 22l5.71-.97C9 21.64 10.46 22 12 22c5.52 0 10-4.48 10-10S17.52 2 12 2zm0 18c-1.33 0-2.57-.27-3.71-.76l-.26-.14-2.62.45.45-2.62-.14-.26A7.95 7.95 0 014 12c0-4.41 3.59-8 8-8s8 3.59 8 8-3.59 8-8 8zm-4-9a1 1 0 110-2 1 1 0 010 2zm4 0a1 1 0 110-2 1 1 0 010 2zm4 0a1 1 0 110-2 1 1 0 010 2z"/>
  </symbol>

  <symbol id="icon-calendar-alt" viewBox="0 0 24 24">
    <path d="M19 4h-1V2h-2v2H8V2H6v2H5c-1.11 0-1.99.9-1.99 2L3 20c0 1.1.89 2 2 2h14c1.1 0 2-.9 2-2V6c0-1.1-.9-2-2-2zm0 16H5V10h14v10zm0-12H5V6h14v2zM7 12h5v5H7v-5z"/>
  </symbol>

  <symbol id="icon-calendar-event" viewBox="0 0 24 24">
    <path d="M19 4h-1V2h-2v2H8V2H6v2H5c-1.11 0-1.99.9-1.99 2L3 20c0 1.1.89 2 2 2h14c1.1 0 2-.9 2-2V6c0-1.1-.9-2-2-2zm0 16H5V10h14v10zM7 12h5v5H7z"/>
  </symbol>

  <symbol id="icon-calendar-date" viewBox="0 0 24 24">
    <path d="M19 4h-1V2h-2v2H8V2H6v2H5c-1.11 0-1.99.9-1.99 2L3 20c0 1.1.89 2 2 2h14c1.1 0 2-.9 2-2V6c0-1.1-.9-2-2-2zm0 16H5V10h14v10zm-7-6h5v5h-5z"/>
  </symbol>

  <symbol id="icon-question-circle" viewBox="0 0 24 24">
    <path d="M12 2C6.48 2 2 6.48 2 12s4.48 10 10 10 10-4.48 10-10S17.52 2 12 2zm1 17h-2v-2h2v2zm2.07-7.75l-.9.92C13.45 12.9 13 13.5 13 15h-2v-.5c0-1.1.45-2.1 1.17-2.83l1.24-1.26c.37-.36.59-.86.59-1.41 0-1.1-.9-2-2-2s-2 .9-2 2H8c0-2.21 1.79-4 4-4s4 1.79 4 4c0 .88-.36 1.68-.93 2.25z"/>
  </symbol>

  <symbol id="icon-pin" viewBox="0 0 24 24">
    <path d="M12 2C8.13 2 5 5.13 5 9c0 5.25 7 13 7 13s7-7.75 7-13c0-3.87-3.13-7-7-7zm0 9.5c-1.38 0-2.5-1.12-2.5-2.5s1.12-2.5 2.5-2.5 2.5 1.12 2.5 2.5-1.12 2.5-2.5 2.5z"/>
  </symbol>

  <!-- Bootstrap Icons (16x16 viewBox) -->
  <symbol id="icon-calendar-event" viewBox="0 0 16 16">
    <path d="M11 6.5a.5.5 0 0 1 .5-.5h1a.5.5 0 0 1 .5.5v1a.5.5 0 0 1-.5.5h-1a.5.5 0 0 1-.5-.5v-1z"/>
    <path d="M3.5 0a.5.5 0 0 1 .5.5V1h8V.5a.5.5 0 0 1 1 0V1h1a2 2 0 0 1 2 2v11a2 2 0 0 1-2 2H2a2 2 0 0 1-2-2V3a2 2 0 0 1 2-2h1V.5a.5.5 0 0 1 .5-.5zM1 4v10a1 1 0 0 0 1 1h12a1 1 0 0 0 1-1V4H1z"/>
  </symbol>

  <symbol id="icon-calendar-date-fill" viewBox="0 0 16 16">
    <path d="M4 .5a.5.5 0 0 0-1 0V1H2a2 2 0 0 0-2 2v1h16V3a2 2 0 0 0-2-2h-1V.5a.5.5 0 0 0-1 0V1H4V.5zm5.402 9.746c.625 0 1.184-.484 1.184-1.18 0-.832-.527-1.23-1.16-1.23-.586 0-1.168.387-1.168 1.21 0 .817.582 1.2 1.144 1.2z"/>
    <path d="M16 14V5H0v9a2 2 0 0 0 2 2h12a2 2 0 0 0 2-2zm-6.664-1.21c-1.11 0-1.656-.767-1.656-1.883 0-1.168.668-1.898 1.801-1.898 1.035 0 1.668.684 1.668 1.898 0 1.125-.602 1.883-1.813 1.883z"/>
  </symbol>

  <symbol id="icon-pin-fill" viewBox="0 0 16 16">
    <path d="M4.146.146A.5.5 0 0 1 4.5 0h7a.5.5 0 0 1 .5.5c0 .68-.342 1.174-.646 1.479-.126.125-.25.224-.354.298v4.431l.078.048c.203.127.476.314.751.555C12.36 7.775 13 8.527 13 9.5a.5.5 0 0 1-.5.5h-4v4.5c0 .276-.224 1.5-.5 1.5s-.5-1.224-.5-1.5V10h-4a.5.5 0 0 1-.5-.5c0-.973.64-1.725 1.17-2.189A5.921 5.921 0 0 1 5 6.708V2.277a2.77 2.77 0 0 1-.354-.298C4.342 1.674 4 1.179 4 .5a.5.5 0 0 1 .146-.354z"/>
  </symbol>

  <symbol id="icon-question-circle-fill" viewBox="0 0 16 16">
    <path d="M16 8A8 8 0 1 1 0 8a8 8 0 0 1 16 0zM5.496 6.033h.825c.138 0 .248-.113.266-.25.09-.656.54-1.134 1.342-1.134.686 0 1.314.343 1.314 1.168 0 .635-.374.927-.965 1.371-.673.489-1.206 1.06-1.168 1.987l.003.217a.25.25 0 0 0 .25.246h.811a.25.25 0 0 0 .25-.25v-.105c0-.718.273-.927 1.01-1.486.609-.463 1.244-.977 1.244-2.056 0-1.511-1.276-2.241-2.673-2.241-1.267 0-2.655.59-2.75 2.286a.237.237 0 0 0 .241.247zm2.325 6.443c.61 0 1.029-.394 1.029-.927 0-.552-.42-.94-1.029-.94-.584 0-1.009.388-1.009.94 0 .533.425.927 1.01.927z"/>
  </symbol>
</svg>
