<?xml version="1.0" encoding="utf-8"?>
<!-- Generator: Adobe Illustrator 23.0.1, SVG Export Plug-In . SVG Version: 6.00 Build 0)  -->
<svg version="1.1" id="Layer_1" xmlns="http://www.w3.org/2000/svg" xmlns:xlink="http://www.w3.org/1999/xlink" x="0px" y="0px"
	 width="118px" height="50px" viewBox="0 0 118 50" style="enable-background:new 0 0 118 50;" xml:space="preserve">
<style type="text/css">
	.st0{fill:#F05F77;}
</style>
<g>
	<title>Tulip_icon_wordmark_pink</title>
	<path class="st0" d="M55,38.8h-3V10.1H42V7.3h23v2.9H55V38.8z"/>
	<path class="st0" d="M74.5,38.8c-0.1-0.6-0.1-1.2-0.1-1.9c0-0.7,0-1.2,0-1.7h-0.1c-0.6,1.2-1.5,2.2-2.7,3c-1.2,0.7-2.6,1.1-4,1.1
		c-2.5,0-4.4-0.8-5.6-2.4c-1.3-1.6-1.9-3.7-1.9-6.2V18h2.9v11.5c0,1,0.1,2,0.3,3c0.1,0.8,0.4,1.6,0.9,2.3c0.4,0.6,1,1.2,1.6,1.5
		c0.7,0.4,1.6,0.5,2.6,0.5c0.8,0,1.5-0.2,2.2-0.5c0.7-0.3,1.4-0.9,1.9-1.5c0.6-0.7,1.1-1.6,1.3-2.5c0.4-1.2,0.5-2.4,0.5-3.6V18h2.9
		v16.3c0,0.6,0,1.3,0,2.2c0,0.9,0.1,1.7,0.1,2.4L74.5,38.8z"/>
	<path class="st0" d="M84.5,38.8h-2.9V7.3h2.9V38.8z"/>
	<path class="st0" d="M92.5,9.4c0,0.6-0.2,1.1-0.6,1.5c-0.8,0.8-2,0.8-2.8,0c-0.8-0.8-0.8-2.1-0.1-3c0,0,0.1-0.1,0.1-0.1
		c0.8-0.8,2-0.8,2.8,0C92.3,8.3,92.5,8.9,92.5,9.4z M91.9,38.9H89V18h2.9V38.9z"/>
	<path class="st0" d="M99.2,49h-2.9V18h2.9v3.6h0.1c0.8-1.3,1.9-2.4,3.3-3.1c1.3-0.7,2.7-1,4.2-1c1.4,0,2.9,0.3,4.2,0.8
		c1.2,0.5,2.3,1.3,3.2,2.3c0.9,1,1.6,2.2,2.1,3.5c1,2.8,1,5.9,0,8.6c-0.5,1.3-1.2,2.5-2.1,3.5c-0.9,1-2,1.8-3.2,2.3
		c-1.3,0.6-2.8,0.9-4.2,0.8c-1.4,0-2.9-0.4-4.2-1c-1.3-0.7-2.5-1.7-3.3-3h-0.1V49z M114,28.4c0-1.1-0.2-2.2-0.5-3.3
		c-0.3-1-0.8-1.9-1.5-2.7c-0.7-0.8-1.4-1.4-2.3-1.8c-1-0.5-2.1-0.7-3.2-0.7c-1,0-2.1,0.2-3,0.6c-0.9,0.4-1.7,1-2.4,1.8
		c-0.7,0.8-1.2,1.7-1.6,2.7c-0.8,2.1-0.8,4.5,0,6.6c0.4,1,0.9,1.9,1.6,2.7c1.4,1.6,3.4,2.4,5.4,2.4c1.1,0,2.2-0.2,3.2-0.6
		c0.9-0.4,1.7-1,2.3-1.8c0.6-0.8,1.1-1.7,1.5-2.7C113.8,30.6,114,29.5,114,28.4z"/>
	<path class="st0" d="M36.7,28.3c-1.3-1.4-3.2-3-5.5-4.5c0.3-0.6,0.6-1.2,0.9-1.8c1.2-2.4,3.8-8.3,2.2-10.6
		c-0.8-1.1-2.6-1.7-5.7-1.7c-2.2,0-4.4,0.3-6.6,0.7c-0.4-2.4-1-4.4-1.6-6c-0.7-1.9-1.6-3-2.5-3.3C17.7,1,17.4,1,17.2,1
		C15,1,11.2,3.9,7.6,8.3C3.7,13.2,1,18.6,0.2,23c-0.6,3.7-0.3,8.7,4.8,12.1c0.5,1.1,1.1,2.1,1.9,2.9c2.2,2.4,5.6,3.6,9.9,3.6
		c4.1,0,9.3-1.2,14-3.3c2.2-1,4-2.1,5.4-3.2c1.5-1.2,2.3-2.4,2.3-3.4C38.5,30.7,37.9,29.6,36.7,28.3z M3.5,24.3
		c-0.3,1.9-0.4,3,0.5,7.1c-1.7-2-2.3-4.7-1.7-7.9c0.7-4.2,3.3-9.2,7-13.8c1.4-1.7,3-3.3,4.7-4.7c1.4-1.1,2.5-1.7,3.2-1.7
		c0,0,0.1,0,0.1,0c0.7,0.3,1.9,3.1,2.8,7.7c-3.4,0.9-6.5,2.1-9.1,3.6c-3.1,1.8-5.3,3.9-6.4,6.3C4,21.9,3.6,23.1,3.5,24.3z M14,17.6
		c-2.2,0-4,0.5-5.5,1.4c2.1-2.1,5.1-3.5,7.5-4.5c1.4-0.5,2.9-1,4.4-1.4c0.3,1.9,0.4,3.8,0.4,5.7C18.3,18,16,17.6,14,17.6z M7.4,21.9
		c1.4-1.6,4.2-2.1,6.7-2.1c2,0,4.3,0.4,6.8,1.3c0,1.6-0.2,3.2-0.4,4.8c-0.7,4.4-2.5,9.9-7.5,9.9c-1.7,0-4.6-0.8-5.9-2.9
		c-1.1-1.8-1.4-3.7-1.3-5.6C5.6,26,5.9,23.5,7.4,21.9z M29.4,22.7c-2.1-1.2-4.3-2.3-6.5-3.2c0-2.3-0.2-4.6-0.5-6.9
		c2.1-0.4,4.2-0.7,6.3-0.7c2.8,0,3.8,0.6,4,0.8c0.3,0.4,0.2,3.1-2.4,8.3C30,21.6,29.7,22.2,29.4,22.7z M22.8,21.8
		c1.9,0.8,3.7,1.7,5.5,2.7c-1.5,2.5-3.3,4.9-5.3,7c-1.2,1.3-2.6,2.4-4.1,3.3c1.7-1.9,2.9-4.8,3.5-8.6C22.6,24.7,22.8,23.3,22.8,21.8
		z M14.7,38.2c3.9,0,10-3.3,15.4-12.5c2.1,1.4,3.9,2.9,5.1,4.2c1,1.1,1.2,1.7,1.2,1.8c0,0.6-2,2.5-6.2,4.5
		c-4.4,2.1-9.3,3.3-13.4,3.3c-3.3,0-5.8-0.7-7.6-2.2C11,37.9,12.8,38.2,14.7,38.2L14.7,38.2z M6.7,33.6L6.7,33.6
		c-0.1-0.1-0.1-0.1-0.1-0.1C6.7,33.5,6.7,33.6,6.7,33.6z"/>
</g>
</svg>
